<svg xmlns="http://www.w3.org/2000/svg" viewBox="0 0 100 100">
  <rect width="100" height="100" rx="24" fill="#ffffff" />
  <defs>
    <linearGradient id="glow" x1="0" y1="0" x2="1" y2="1">
      <stop offset="0%" stop-color="#0f7f59" />
      <stop offset="100%" stop-color="#006a4e" />
    </linearGradient>
  </defs>
  <circle cx="50" cy="44" r="32" fill="url(#glow)" />
  <path d="M 44 30 h12 a4 4 0 0 1 4 4 v18 a4 4 0 0 1 -4 4 h-12 a4 4 0 0 1 -4 -4 v-18 a4 4 0 0 1 4 -4 z" fill="#ffffff" />
  <path d="M 36 44 v4 c0 10 8 18 18 18 s18 -8 18 -18 v-4" fill="none" stroke="#ffffff" stroke-width="5" stroke-linecap="round" />
  <line x1="50" y1="64" x2="50" y2="74" stroke="#ffffff" stroke-width="5" stroke-linecap="round" />
  <line x1="40" y1="74" x2="60" y2="74" stroke="#ffffff" stroke-width="5" stroke-linecap="round" />
  <circle cx="73" cy="27" r="8" fill="#f42a41" opacity="0.95" />
</svg>
